<!-- Generator: Adobe Illustrator 19.1.0, SVG Export Plug-In  -->
<svg version="1.1"
	 xmlns="http://www.w3.org/2000/svg" xmlns:xlink="http://www.w3.org/1999/xlink" xmlns:a="http://ns.adobe.com/AdobeSVGViewerExtensions/3.0/"
	 x="0px" y="0px" width="64px" height="73px" viewBox="0 0 64 73" enable-background="new 0 0 64 73" xml:space="preserve">
<defs>
</defs>
<g>
	<path fill="#DC2F34" d="M32,64L32,64C14.3,64,0,49.7,0,32v0C0,14.3,14.3,0,32,0h0c17.7,0,32,14.3,32,32v0C64,49.7,49.7,64,32,64z"
		/>
	<path id="XMLID_1_" fill="#FFFFFF" d="M31.9,13c7.2,1.1,14.5,8.2,14.5,18.2c0,10.4-7.3,19.4-17.3,20.6c5.1,1.1,18.8-1.3,20.1-18.1
		c1-12.1-8.5-20.6-18.1-21.1c-0.1,0-0.2-0.1,0-0.1c10.2-0.2,19.4,9.2,19.3,20.8c0,4-1.2,8.2-3.7,12.2c3.6-3.8,5.2-9.3,5.2-13.1
		c0-12.2-9.7-20.5-20.2-20.4C19.6,12.2,12.5,22.1,12,30.4c1.3-2.9,3.8-5.1,5.3-6.1c0.1-5.6,4-9.5,8.3-10.7
		C34,11.4,41,18.7,40.7,27.4C40.7,38.3,29.6,49.1,16,44c0.1,0.2,6.4,10.3,19.2,3.7c8.8-4.5,12.2-16.2,7.5-25.5
		C38.7,14.3,31.8,13,30.4,13c-0.1,0-0.1-0.1,0-0.1C31.2,12.9,31.9,13,31.9,13"/>
	<polygon fill="#DC2F34" points="32,73 27,63 37,63 	"/>
</g>
</svg>
