<!-- Generator: Adobe Illustrator 19.1.0, SVG Export Plug-In  -->
<svg version="1.1"
	 xmlns="http://www.w3.org/2000/svg" xmlns:xlink="http://www.w3.org/1999/xlink" xmlns:a="http://ns.adobe.com/AdobeSVGViewerExtensions/3.0/"
	 x="0px" y="0px" width="7px" height="42px" viewBox="0 0 7 42" enable-background="new 0 0 7 42" xml:space="preserve">
<defs>
	<symbol  id="facebook" viewBox="-5.8 -12 11.7 24">
		<path id="facebook_10_" fill="#FFFFFF" d="M-2.9-12v11.3h-3v4.1h3c0,0,0,1.7,0,3.5C-2.9,9.5-1.1,12,3,12c1.6,0,2.9-0.2,2.9-0.2
			L5.7,8.1c0,0-1.2,0-2.6,0c-1.5,0-1.7-0.7-1.7-1.8c0-0.9,0,1.9,0-3h4.4L5.6-0.7H1.4V-12H-2.9z"/>
	</symbol>
	<symbol  id="linkedin" viewBox="-10.5 -10 21 20.1">
		<path fill-rule="evenodd" clip-rule="evenodd" fill="#FFFFFF" d="M-5.7-10V3.5h-4.5V-10H-5.7L-5.7-10z M-8,5.4
			c1.6,0,2.5,1,2.5,2.3C-5.5,9-6.4,10-8,10c-1.5,0-2.5-1-2.5-2.3C-10.5,6.4-9.5,5.4-8,5.4L-8,5.4L-8,5.4z M-3.2-10
			c0,0,0.1,12.3,0,13.5h4.5v-2h0c0.6,0.9,1.7,2.3,4.1,2.3c3,0,5.2-1.9,5.2-6.1V-10H6v7.2C6-1,5.3,0.3,3.7,0.3c-1.2,0-2-0.8-2.3-1.6
			C1.3-1.7,1.3-2.1,1.3-2.5V-10H-3.2L-3.2-10z"/>
	</symbol>
	<symbol  id="logo_x5F_white_x5F_red" viewBox="-50.5 -20 101 40">
		<path id="XMLID_5378_" fill="#FFFFFF" d="M-45.5-1.9h-0.1c-0.3,0.8-0.9,1.2-1.8,1.2c-1,0-1.8-0.6-1.8-1.7c0-2.6,4.4-1.6,4.4-4.6
			c0-2-1.6-3.2-3.5-3.2c-0.7,0-1.8,0.3-2.3,0.8l0.3,1.3h0.1c0.6-0.9,1.2-1.5,2.3-1.5c1.1,0,2,0.9,2,2.1c0,2.6-4.4,1.5-4.4,4.7
			c0,1.8,1.4,2.7,3.1,2.7c0.7,0,1.5-0.2,2-0.7L-45.5-1.9z M-36.2-0.3l-3.5-3.6c-0.2-0.2-0.5-0.5-0.7-0.7c-0.1-0.1-0.3-0.2-0.4-0.1
			v4.4h-1.2V-10h1.2V-5c0,0.1,0.2,0,0.2,0l3.1-3.6c0.4-0.4,0.7-0.8,1-1.3h1.6v0.1l-1.1,1.4c-1.1,1.3-2.3,2.6-3.4,3.9l1.2,1.2
			l3.2,3.1H-36.2z M-18.6-0.3h-5v-9.6h5.1c0,0,0,0.8,0,0.8c-0.4-0.1-0.9-0.1-1.3-0.1c-0.8,0-1.7-0.1-2.6-0.1v4.1h2.2
			c0.4,0,0.8-0.1,1.3-0.1v0.8c-0.4,0-0.8-0.1-1.3-0.1h-2.2V-1h1.1l1.4,0c0.4,0,0.8-0.1,1.3-0.2V-0.3z M-9.6-0.3h-7.3v-0.8
			C-16-1.1-15.2-1-13.7-1v-9c0,0,1.2,0,1.2,0l0,9c1.3,0,2.2-0.1,3-0.2V-0.3z M1.4-10c0,0,1.2,0,1.2,0l0,9.7c0,0-1.2,0-1.2,0V-10z
			 M14.3-0.3h-0.8v-7.4L6.7-0.3H6.1V-10c0.1,0,0.6,0,0.8,0v7.6h0.1l6.1-6.7c0.3-0.3,0.6-0.7,0.7-0.9h0.4V-0.3z M26-0.9
			c-0.3,0.2-1.5,0.8-3.6,0.8c-3.1,0-5.5-1.7-5.5-5c0-2.9,1.6-5,5.2-5c1.3,0,2.6,0.2,3.8,0.6v4h-1.2v-3.6c-0.6-0.3-1.4-0.5-2.2-0.5
			c-2.8,0-4.2,1.7-4.2,4.5c0,2.9,1.7,4.4,4.1,4.4c1.2,0,2.4-0.5,3.2-1.4h0.2L26-0.9z M-26.2-9.6l-0.7,0.8l-2.9,3.7
			c1.4,0.3,2.9,1,2.9,2.7c0,1.4-1,2.1-3.1,2.1h-3V-10h1.2v4.7h0v0.5h0v3.9c0.6,0,1.6,0.1,2.1,0c1.1-0.2,1.6-0.8,1.6-1.8
			c0-1.1-0.8-1.8-1.8-2c-0.4-0.1-0.9-0.1-1.3-0.1v-0.5l1.1-1.3l1.7-2.2c0.3-0.4,0.6-0.8,0.9-1.2h1.6l0,0.1L-26.2-9.6z M-1-0.3h-7.3
			v-0.8C-7.5-1.1-6.6-1-5.2-1v-9c0,0,1.2,0,1.2,0v9c1.3,0,2.2-0.1,3-0.2V-0.3z"/>
		<path id="XMLID_5377_" fill="#DC2F34" d="M30.5,19C37.6,17.9,45,10.7,45,0.8c0-10.4-7.3-19.4-17.3-20.5
			c5.1-1.1,18.8,1.3,20.1,18.1c1,12.1-8.4,20.5-18,21.1c-0.1,0-0.2,0.1,0,0.1C39.9,19.6,49.1,10.3,49-1.3c0-4-1.2-8.2-3.7-12.1
			c3.6,3.7,5.2,9.3,5.2,13.1c0,12.1-9.6,20.5-20.2,20.3C18.1,19.8,11.1,9.8,10.6,1.6c1.3,2.9,3.8,5,5.3,6.1c0.1,5.6,4,9.5,8.3,10.6
			c8.4,2.2,15.4-5.1,15.1-13.8c0-10.8-11.2-21.6-24.7-16.6c0.1-0.2,6.4-10.3,19.2-3.7c8.8,4.5,12.1,16.2,7.5,25.4
			c-4,8-10.9,9.3-12.3,9.3c-0.1,0-0.1,0.1,0,0.1C29.7,19.1,30.5,19,30.5,19"/>
		<path id="XMLID_5321_" fill="#FFFFFF" d="M-50.2-15.5c0,0.8,0.5,1.5,1.3,1.5c0.4,0,0.8-0.2,0.9-0.4v0.4h0.6v-2.8H-48v0.4
			c0,0-0.3-0.5-0.9-0.5C-49.7-17-50.2-16.3-50.2-15.5 M-48.8-14.6c-0.5,0-0.8-0.5-0.8-0.9c0-0.5,0.3-0.9,0.8-0.9
			c0.6,0,0.8,0.5,0.8,1C-48-14.9-48.3-14.6-48.8-14.6 M-42.6-16.9h0.7v3.5h-0.7v-2.6l-1.8,2.6H-45v-3.5h0.7v2.5L-42.6-16.9z
			 M-39.4-15.7c0-0.5-0.2-0.7-0.5-0.7c-0.4,0-0.6,0.1-0.6,0.7v1.6h-0.6v-1.8c0-0.7,0.5-1.1,1.2-1.1c0.7,0,1.2,0.4,1.2,1.1v1.8h-0.6
			V-15.7z M-37.4-16.9v2.2h0.5v0.6h-0.5v0.8H-38v-0.8h-0.3v-0.6h0.3v-2.2H-37.4z M-35.4-14.6c0.1,0,0.3-0.1,0.3-0.1l0.2,0.6
			C-35-14-35.1-14-35.2-14c-0.6,0-0.7-0.5-0.7-0.5v0.4h-0.6v-2.8h0.6v1.5C-35.9-15-35.8-14.6-35.4-14.6 M-34.7-15.5
			c0,0.8,0.6,1.5,1.5,1.5c0.9,0,1.4-0.7,1.4-1.6h-2.2c0-0.4,0.3-0.8,0.8-0.8c0.4,0,0.7,0.2,0.8,0.5l0.6-0.3
			c-0.2-0.4-0.6-0.8-1.3-0.8C-34.1-17-34.7-16.4-34.7-15.5 M-34.1-15.2h1.5c0,0.1-0.1,0.6-0.8,0.6C-33.8-14.5-34.1-15-34.1-15.2
			 M-31.5-15.6c0-0.9,0.7-1.4,1.5-1.4c0.5,0,0.8,0.2,0.8,0.2v0.6c-0.2-0.1-0.5-0.3-0.8-0.3c-0.6,0-0.9,0.4-0.9,0.8
			c0,0.6,0.3,0.9,0.9,0.9c0.4,0,0.8-0.2,0.8-0.2v0.6c-0.2,0.1-0.5,0.2-0.8,0.2C-30.9-14-31.5-14.7-31.5-15.6 M-27.3-14
			c0.9,0,1.5-0.7,1.5-1.5c0-0.8-0.6-1.5-1.5-1.5c-0.8,0-1.5,0.6-1.5,1.5C-28.8-14.7-28.1-14-27.3-14 M-28.1-15.5
			c0-0.5,0.3-0.9,0.8-0.9c0.6,0,0.9,0.4,0.9,0.9c0,0.5-0.3,0.9-0.9,0.9C-27.8-14.6-28.1-15-28.1-15.5 M-23.8-15.6
			c0-0.9,0.7-1.4,1.5-1.4c0.5,0,0.8,0.2,0.8,0.2v0.6c-0.2-0.1-0.5-0.3-0.8-0.3c-0.6,0-0.9,0.4-0.9,0.8c0,0.6,0.3,0.9,0.9,0.9
			c0.4,0,0.8-0.2,0.8-0.2v0.6c-0.2,0.1-0.5,0.2-0.8,0.2C-23.3-14-23.8-14.7-23.8-15.6 M-19.6-14c0.9,0,1.5-0.7,1.5-1.5
			c0-0.8-0.6-1.5-1.5-1.5c-0.8,0-1.5,0.6-1.5,1.5C-21.1-14.7-20.4-14-19.6-14 M-20.4-15.5c0-0.5,0.3-0.9,0.8-0.9
			c0.6,0,0.9,0.4,0.9,0.9c0,0.5-0.3,0.9-0.9,0.9C-20.1-14.6-20.4-15-20.4-15.5 M-16.9-15.1c0,0.3,0.2,0.6,0.5,0.6
			c0.3,0,0.4-0.1,0.4-0.5v-1.9h0.6v1.8c0,0.3,0.2,0.6,0.6,0.6c0.2,0,0.4-0.1,0.4-0.5v-1.9h0.6v2.1c0,0.5-0.4,0.8-0.9,0.8
			c-0.6,0-0.8-0.4-0.8-0.4c0,0.1-0.3,0.4-0.7,0.4c-0.5,0-0.8-0.4-0.8-0.4v0.3h-0.6v-2.8h0.6V-15.1z M-13-14.1h0.6v-0.4
			c0.2,0.3,0.5,0.5,0.9,0.5c0.9,0,1.3-0.7,1.3-1.5c0-0.7-0.5-1.4-1.3-1.4c-0.6,0-0.9,0.4-0.9,0.4v-1.6H-13V-14.1z M-10.8-15.6
			c0,0.5-0.2,1-0.8,1c-0.5,0-0.8-0.4-0.8-0.9c0-0.5,0.3-0.8,0.8-0.8C-11.2-16.4-10.8-16-10.8-15.6 M-9.8-15.5c0,0.8,0.5,1.5,1.3,1.5
			c0.4,0,0.8-0.2,0.9-0.4v0.4H-7v-2.8h-0.6v0.4c0,0-0.3-0.5-0.9-0.5C-9.3-17-9.8-16.3-9.8-15.5 M-8.3-14.6c-0.5,0-0.8-0.5-0.8-0.9
			c0-0.5,0.3-0.9,0.8-0.9c0.6,0,0.8,0.5,0.8,1C-7.6-14.9-7.9-14.6-8.3-14.6 M-5.6-15.4c0,0.3,0.1,0.8,0.7,0.8c0.4,0,0.5-0.2,0.5-0.7
			v-1.6h0.6v1.9c0,0.6-0.4,1-1,1c-0.7,0-0.9-0.5-0.9-0.5v0.4h-0.6v-2.8h0.6V-15.4z M-2.1-16.5l-0.7-1.6h0.7l1.7,4h-0.6l-0.7-1.8
			l-0.9,1.8h-0.7L-2.1-16.5z"/>
	</symbol>
</defs>
<g id="footer_x5F_tablet_copia">
	<g id="XMLID_1_">
		<g id="XMLID_5_">
			<g>
				<path id="XMLID_19_" fill="#979496" d="M0.4,42v-2.2c0-0.3,0-0.6,0.1-0.9s0.2-0.5,0.3-0.7c0.1-0.2,0.3-0.4,0.6-0.5
					c0.2-0.1,0.5-0.2,0.9-0.2c0.4,0,0.8,0.1,1.1,0.3C3.7,38,3.9,38.3,4,38.6l2.6-1.5v1.6L4.2,40v0.6h2.4V42H0.4z M3.2,39.9
					c0-0.1,0-0.3,0-0.4c0-0.1-0.1-0.2-0.1-0.4c-0.1-0.1-0.1-0.2-0.3-0.2c-0.1-0.1-0.3-0.1-0.4-0.1c-0.1,0-0.3,0-0.4,0.1
					C1.9,39,1.8,39,1.7,39.1c-0.1,0.1-0.1,0.2-0.1,0.3c0,0.1,0,0.2,0,0.4v0.8h1.6V39.9z"/>
				<path id="XMLID_17_" fill="#979496" d="M0.5,36.2v-4.2h1.1v2.9h1.3v-2.7H4v2.7h1.4v-3h1.2v4.4H0.5z"/>
				<path id="XMLID_14_" fill="#979496" d="M0.5,28.5v-1.3l6.2-2.7v1.5l-1.3,0.5v2.5l1.3,0.5v1.5L0.5,28.5z M4.2,27l-2.1,0.9
					l2.1,0.8V27z"/>
				<path id="XMLID_12_" fill="#979496" d="M2.2,19.7c-0.2,0.2-0.4,0.3-0.5,0.6c-0.1,0.2-0.2,0.5-0.2,0.7c0,0.3,0,0.5,0.1,0.7
					c0.1,0.2,0.2,0.4,0.4,0.6c0.2,0.2,0.4,0.3,0.6,0.4c0.2,0.1,0.5,0.1,0.8,0.1c0.3,0,0.6,0,0.8-0.1c0.2-0.1,0.5-0.2,0.6-0.4
					c0.2-0.2,0.3-0.3,0.4-0.6c0.1-0.2,0.2-0.5,0.2-0.7c0-0.6-0.2-1-0.7-1.4l0.8-1.1c0.3,0.2,0.6,0.6,0.8,1c0.2,0.4,0.3,0.9,0.3,1.6
					c0,0.5-0.1,0.9-0.2,1.4c-0.2,0.4-0.4,0.7-0.7,1c-0.3,0.3-0.6,0.5-1,0.7c-0.4,0.2-0.8,0.2-1.3,0.2c-0.5,0-0.9-0.1-1.3-0.3
					c-0.4-0.2-0.7-0.4-1-0.7c-0.3-0.3-0.5-0.7-0.6-1.1c-0.2-0.4-0.2-0.9-0.2-1.3c0-0.5,0.1-0.9,0.2-1.3c0.2-0.4,0.4-0.7,0.8-1
					L2.2,19.7z"/>
				<path id="XMLID_10_" fill="#979496" d="M1.6,16.4v1.8H0.5v-5h1.2V15h5v1.4H1.6z"/>
				<path id="XMLID_7_" fill="#979496" d="M0.4,4.8V2.6c0-0.3,0-0.6,0.1-0.9S0.7,1.2,0.9,1s0.3-0.4,0.6-0.5C1.7,0.3,2,0.3,2.3,0.3
					c0.4,0,0.8,0.1,1.1,0.3C3.7,0.8,3.9,1.1,4,1.5L6.6,0v1.6L4.2,2.9v0.6h2.4v1.4H0.4z M3.2,2.8c0-0.1,0-0.3,0-0.4
					C3.1,2.2,3.1,2.1,3,2C2.9,1.9,2.9,1.8,2.7,1.8C2.6,1.7,2.5,1.7,2.3,1.7c-0.1,0-0.3,0-0.4,0.1C1.9,1.8,1.8,1.9,1.7,2
					C1.7,2.1,1.6,2.2,1.6,2.3c0,0.1,0,0.2,0,0.4v0.8h1.6V2.8z"/>
			</g>
		</g>
		<path id="XMLID_2_" fill="#3DC4CC" d="M1.6,9.4c0-1.1,0.9-1.9,1.9-1.9s1.9,0.9,1.9,1.9s-0.9,1.9-1.9,1.9S1.6,10.5,1.6,9.4 M0,9.4
			c0,1.9,1.6,3.5,3.5,3.5S7,11.3,7,9.4c0-1.9-1.6-3.5-3.5-3.5S0,7.5,0,9.4L0,9.4z"/>
	</g>
</g>
</svg>
