<?xml version="1.0" encoding="utf-8"?>
<!-- Generator: Adobe Illustrator 19.1.0, SVG Export Plug-In . SVG Version: 6.00 Build 0)  -->
<svg version="1.1" id="Capa_1" xmlns="http://www.w3.org/2000/svg" xmlns:xlink="http://www.w3.org/1999/xlink" x="0px" y="0px"
	 width="101px" height="40px" viewBox="-247 400.9 101 40" style="enable-background:new -247 400.9 101 40;" xml:space="preserve">
<style type="text/css">
	.st0{fill:#FFFFFF;}
</style>
<symbol  id="logo_x5F_white_x5F_red" viewBox="-50.6 -20 101.1 39.9">
	<path id="XMLID_10_" class="st0" d="M-45.5-1.9L-45.5-1.9c-0.4,0.8-1,1.2-1.9,1.2c-1,0-1.8-0.6-1.8-1.7c0-2.6,4.4-1.6,4.4-4.6
		c0-2-1.6-3.2-3.5-3.2c-0.7,0-1.8,0.3-2.3,0.8l0.3,1.3h0.1c0.6-0.9,1.2-1.5,2.3-1.5s2,0.9,2,2.1c0,2.6-4.4,1.5-4.4,4.7
		c0,1.8,1.4,2.7,3.1,2.7c0.7,0,1.5-0.2,2-0.7L-45.5-1.9z M-36.2-0.3l-3.5-3.6c-0.2-0.2-0.5-0.5-0.7-0.7c-0.1-0.1-0.3-0.2-0.4-0.1
		v4.4H-42V-10h1.2v5c0,0.1,0.2,0,0.2,0l3.1-3.6c0.4-0.4,0.7-0.8,1-1.3h1.6v0.1L-36-8.4c-1.1,1.3-2.3,2.6-3.4,3.9l1.2,1.2l3.2,3.1
		L-36.2-0.3L-36.2-0.3z M-18.6-0.3h-5v-9.6h5.1v0.8c-0.4-0.1-0.9-0.1-1.3-0.1c-0.8,0-1.7-0.1-2.6-0.1v4.1h2.2c0.4,0,0.8-0.1,1.3-0.1
		v0.8c-0.4,0-0.8-0.1-1.3-0.1h-2.2V-1h1.1h1.4c0.4,0,0.8-0.1,1.3-0.2V-0.3z M-9.6-0.3h-7.3v-0.8c0.9,0,1.7,0.1,3.2,0.1v-9h1.2v9
		c1.3,0,2.2-0.1,3-0.2v0.9H-9.6z M1.4-10h1.2v9.7H1.4C1.4-0.3,1.4-10,1.4-10z M14.3-0.3h-0.8v-7.4L6.7-0.3H6.1V-10
		c0.1,0,0.6,0,0.8,0v7.6H7l6.1-6.7c0.3-0.3,0.6-0.7,0.7-0.9h0.4v9.7H14.3z M26-0.9c-0.3,0.2-1.5,0.8-3.6,0.8c-3.1,0-5.5-1.7-5.5-5
		c0-2.9,1.6-5,5.2-5c1.3,0,2.6,0.2,3.8,0.6v4h-1.2v-3.6c-0.6-0.3-1.4-0.5-2.2-0.5c-2.8,0-4.2,1.7-4.2,4.5c0,2.9,1.7,4.4,4.1,4.4
		c1.2,0,2.4-0.5,3.2-1.4h0.2L26-0.9z M-26.2-9.6l-0.7,0.8l-2.9,3.7c1.4,0.3,2.9,1,2.9,2.7c0,1.4-1,2.1-3.1,2.1h-3V-10h1.2v4.7l0,0
		v0.5l0,0v3.9c0.6,0,1.6,0.1,2.1,0c1.1-0.2,1.6-0.8,1.6-1.8c0-1.1-0.8-1.8-1.8-2c-0.4-0.1-0.9-0.1-1.3-0.1v-0.5l1.1-1.3l1.7-2.2
		c0.3-0.4,0.6-0.8,0.9-1.2h1.6v0.1L-26.2-9.6z M-1-0.3h-7.3v-0.8C-7.5-1.1-6.6-1-5.2-1v-9H-4v9c1.3,0,2.2-0.1,3-0.2
		C-1-1.2-1-0.3-1-0.3z"/>
	<path id="XMLID_9_" class="st0" d="M30.5,19C37.6,17.9,45,10.7,45,0.8c0-10.4-7.3-19.4-17.3-20.5c5.1-1.1,18.8,1.3,20.1,18.1
		c1,12.1-8.4,20.5-18,21.1c-0.1,0-0.2,0.1,0,0.1c10.1,0,19.3-9.3,19.2-20.9c0-4-1.2-8.2-3.7-12.1c3.6,3.7,5.2,9.3,5.2,13.1
		c0,12.1-9.6,20.5-20.2,20.3C18.1,19.8,11.1,9.8,10.6,1.6c1.3,2.9,3.8,5,5.3,6.1c0.1,5.6,4,9.5,8.3,10.6c8.4,2.2,15.4-5.1,15.1-13.8
		c0-10.8-11.2-21.6-24.7-16.6c0.1-0.2,6.4-10.3,19.2-3.7c8.8,4.5,12.1,16.2,7.5,25.4c-4,8-10.9,9.3-12.3,9.3c-0.1,0-0.1,0.1,0,0.1
		C29.7,19.1,30.5,19,30.5,19"/>
	<path id="XMLID_8_" class="st0" d="M-50.2-15.5c0,0.8,0.5,1.5,1.3,1.5c0.4,0,0.8-0.2,0.9-0.4v0.4h0.6v-2.8H-48v0.4
		c0,0-0.3-0.5-0.9-0.5C-49.7-17-50.2-16.3-50.2-15.5 M-48.8-14.6c-0.5,0-0.8-0.5-0.8-0.9c0-0.5,0.3-0.9,0.8-0.9c0.6,0,0.8,0.5,0.8,1
		S-48.3-14.6-48.8-14.6 M-42.6-16.9h0.7v3.5h-0.7V-16l-1.8,2.6H-45v-3.5h0.7v2.5L-42.6-16.9z M-39.4-15.7c0-0.5-0.2-0.7-0.5-0.7
		c-0.4,0-0.6,0.1-0.6,0.7v1.6h-0.6v-1.8c0-0.7,0.5-1.1,1.2-1.1c0.7,0,1.2,0.4,1.2,1.1v1.8h-0.6v-1.6H-39.4z M-37.4-16.9v2.2h0.5v0.6
		h-0.5v0.8H-38v-0.8h-0.3v-0.6h0.3v-2.2H-37.4z M-35.4-14.6c0.1,0,0.3-0.1,0.3-0.1l0.2,0.6C-35-14-35.1-14-35.2-14
		c-0.6,0-0.7-0.5-0.7-0.5v0.4h-0.6v-2.8h0.6v1.5C-35.9-15-35.8-14.6-35.4-14.6 M-34.7-15.5c0,0.8,0.6,1.5,1.5,1.5s1.4-0.7,1.4-1.6
		H-34c0-0.4,0.3-0.8,0.8-0.8c0.4,0,0.7,0.2,0.8,0.5l0.6-0.3c-0.2-0.4-0.6-0.8-1.3-0.8C-34.1-17-34.7-16.4-34.7-15.5 M-34.1-15.2h1.5
		c0,0.1-0.1,0.6-0.8,0.6C-33.8-14.5-34.1-15-34.1-15.2 M-31.5-15.6c0-0.9,0.7-1.4,1.5-1.4c0.5,0,0.8,0.2,0.8,0.2v0.6
		c-0.2-0.1-0.5-0.3-0.8-0.3c-0.6,0-0.9,0.4-0.9,0.8c0,0.6,0.3,0.9,0.9,0.9c0.4,0,0.8-0.2,0.8-0.2v0.6c-0.2,0.1-0.5,0.2-0.8,0.2
		C-30.9-14-31.5-14.7-31.5-15.6 M-27.3-14c0.9,0,1.5-0.7,1.5-1.5c0-0.8-0.6-1.5-1.5-1.5c-0.8,0-1.5,0.6-1.5,1.5
		C-28.8-14.7-28.1-14-27.3-14 M-28.1-15.5c0-0.5,0.3-0.9,0.8-0.9c0.6,0,0.9,0.4,0.9,0.9c0,0.5-0.3,0.9-0.9,0.9
		C-27.8-14.6-28.1-15-28.1-15.5 M-23.8-15.6c0-0.9,0.7-1.4,1.5-1.4c0.5,0,0.8,0.2,0.8,0.2v0.6c-0.2-0.1-0.5-0.3-0.8-0.3
		c-0.6,0-0.9,0.4-0.9,0.8c0,0.6,0.3,0.9,0.9,0.9c0.4,0,0.8-0.2,0.8-0.2v0.6c-0.2,0.1-0.5,0.2-0.8,0.2C-23.3-14-23.8-14.7-23.8-15.6
		 M-19.6-14c0.9,0,1.5-0.7,1.5-1.5c0-0.8-0.6-1.5-1.5-1.5c-0.8,0-1.5,0.6-1.5,1.5C-21.1-14.7-20.4-14-19.6-14 M-20.4-15.5
		c0-0.5,0.3-0.9,0.8-0.9c0.6,0,0.9,0.4,0.9,0.9c0,0.5-0.3,0.9-0.9,0.9C-20.1-14.6-20.4-15-20.4-15.5 M-16.9-15.1
		c0,0.3,0.2,0.6,0.5,0.6S-16-14.6-16-15v-1.9h0.6v1.8c0,0.3,0.2,0.6,0.6,0.6c0.2,0,0.4-0.1,0.4-0.5v-1.9h0.6v2.1
		c0,0.5-0.4,0.8-0.9,0.8c-0.6,0-0.8-0.4-0.8-0.4c0,0.1-0.3,0.4-0.7,0.4c-0.5,0-0.8-0.4-0.8-0.4v0.3h-0.6v-2.8h0.6L-16.9-15.1
		L-16.9-15.1z M-13-14.1h0.6v-0.4c0.2,0.3,0.5,0.5,0.9,0.5c0.9,0,1.3-0.7,1.3-1.5c0-0.7-0.5-1.4-1.3-1.4c-0.6,0-0.9,0.4-0.9,0.4
		v-1.6H-13V-14.1z M-10.8-15.6c0,0.5-0.2,1-0.8,1c-0.5,0-0.8-0.4-0.8-0.9c0-0.5,0.3-0.8,0.8-0.8C-11.2-16.4-10.8-16-10.8-15.6
		 M-9.8-15.5c0,0.8,0.5,1.5,1.3,1.5c0.4,0,0.8-0.2,0.9-0.4v0.4H-7v-2.8h-0.6v0.4c0,0-0.3-0.5-0.9-0.5C-9.3-17-9.8-16.3-9.8-15.5
		 M-8.3-14.6c-0.5,0-0.8-0.5-0.8-0.9c0-0.5,0.3-0.9,0.8-0.9c0.6,0,0.8,0.5,0.8,1C-7.6-14.9-7.9-14.6-8.3-14.6 M-5.6-15.4
		c0,0.3,0.1,0.8,0.7,0.8c0.4,0,0.5-0.2,0.5-0.7v-1.6h0.6v1.9c0,0.6-0.4,1-1,1c-0.7,0-0.9-0.5-0.9-0.5v0.4h-0.6v-2.8h0.6v1.5H-5.6z
		 M-2.1-16.5l-0.7-1.6h0.7l1.7,4H-1l-0.7-1.8l-0.9,1.8h-0.7L-2.1-16.5z"/>
</symbol>
<g id="footer_x5F_mobile_copia">
	
		<use xlink:href="#logo_x5F_white_x5F_red"  width="101.1" height="39.9" id="XMLID_4_" x="-50.6" y="-20" transform="matrix(0.999 0 0 -0.999 -196.5168 420.8901)" style="overflow:visible;"/>
</g>
</svg>
