<!-- Generator: Adobe Illustrator 19.1.0, SVG Export Plug-In  -->
<svg version="1.1"
	 xmlns="http://www.w3.org/2000/svg" xmlns:xlink="http://www.w3.org/1999/xlink" xmlns:a="http://ns.adobe.com/AdobeSVGViewerExtensions/3.0/"
	 x="0px" y="0px" width="19px" height="18.4px" viewBox="0 0 19 18.4" enable-background="new 0 0 19 18.4" xml:space="preserve">
<defs>
	<symbol  id="icon_x5F_search" viewBox="-9.8 -9.5 19.6 18.9">
		<path d="M9.5-7.8L5.7-3.9c1,1.4,1.5,3.1,1.5,4.9c0,4.7-3.8,8.5-8.5,8.5S-9.8,5.7-9.8,1S-6-7.5-1.3-7.5
			c2.2,0,4.1,0.8,5.6,2.1l3.8-3.8c0.2-0.2,0.5-0.3,0.7-0.3s0.5,0.1,0.7,0.3C9.9-8.8,9.9-8.1,9.5-7.8z M-1.3-5.5
			c-3.6,0-6.5,2.9-6.5,6.5s2.9,6.5,6.5,6.5S5.2,4.5,5.2,1S2.3-5.5-1.3-5.5z"/>
	</symbol>
</defs>
<use xlink:href="#icon_x5F_search"  width="19.6" height="18.9" x="-9.8" y="-9.5" transform="matrix(0.9698 0 0 -0.9698 9.5 9.1789)" overflow="visible"/>
</svg>
