<!-- Generator: Adobe Illustrator 19.1.0, SVG Export Plug-In  -->
<svg version="1.1"
	 xmlns="http://www.w3.org/2000/svg" xmlns:xlink="http://www.w3.org/1999/xlink" xmlns:a="http://ns.adobe.com/AdobeSVGViewerExtensions/3.0/"
	 x="0px" y="0px" width="21px" height="20.1px" viewBox="0 0 21 20.1" enable-background="new 0 0 21 20.1" xml:space="preserve">
<defs>
	<symbol  id="linkedin" viewBox="-10.5 -10 21 20.1">
		<path fill-rule="evenodd" clip-rule="evenodd" d="M-5.7-10V3.5h-4.5V-10H-5.7L-5.7-10z M-8,5.4
			c1.6,0,2.5,1,2.5,2.3C-5.5,9-6.4,10-8,10c-1.5,0-2.5-1-2.5-2.3C-10.5,6.4-9.5,5.4-8,5.4L-8,5.4L-8,5.4z M-3.2-10
			c0,0,0.1,12.3,0,13.5h4.5v-2h0c0.6,0.9,1.7,2.3,4.1,2.3c3,0,5.2-1.9,5.2-6.1V-10H6v7.2C6-1,5.3,0.3,3.7,0.3c-1.2,0-2-0.8-2.3-1.6
			C1.3-1.7,1.3-2.1,1.3-2.5V-10H-3.2L-3.2-10z"/>
	</symbol>
</defs>
<use xlink:href="#linkedin"  width="21" height="20.1" x="-10.5" y="-10" transform="matrix(1 0 0 -1 10.5 10.0364)" overflow="visible"/>
</svg>
