<!-- Generator: Adobe Illustrator 19.1.0, SVG Export Plug-In  -->
<svg version="1.1"
	 xmlns="http://www.w3.org/2000/svg" xmlns:xlink="http://www.w3.org/1999/xlink" xmlns:a="http://ns.adobe.com/AdobeSVGViewerExtensions/3.0/"
	 x="0px" y="0px" width="12.8px" height="16px" viewBox="0 0 12.8 16" enable-background="new 0 0 12.8 16" xml:space="preserve">
<defs>
	<symbol  id="columna" viewBox="-6.4 -8.5 12.8 16">
		<g>
			<g>
				<path d="M0-1c2.4,0,3.2,2.4,3.4,4.3C3.7,5.7,2.6,7.5,0,7.5c-2.6,0-3.7-1.8-3.4-4.2C-3.2,1.3-2.4-1,0-1z"/>
				<path d="M6.4-6.7c0,0.8-0.1,1.5-0.2,2.3C6-3.5,5.8-2.2,5-1.6C4.6-1.3,4-1.2,3.4-1C3.2-0.9,3-0.8,2.7-0.7
					C2-1.4,1.1-1.9,0-1.9c-1.1,0-2,0.4-2.7,1.2C-3-0.8-3.2-0.9-3.4-1C-4-1.2-4.6-1.3-5-1.6c-0.8-0.6-1-1.9-1.1-2.8
					c-0.1-0.7-0.2-1.5-0.2-2.3c0-0.6,0.3-0.7,0.8-0.8C-5-7.8-4.4-7.9-3.8-8.1C-2.5-8.3-1.3-8.5,0-8.5c1.3,0,2.5,0.2,3.8,0.5
					C4.4-7.9,5-7.8,5.6-7.5C6.1-7.4,6.4-7.3,6.4-6.7z"/>
			</g>
		</g>
	</symbol>
</defs>
<use xlink:href="#columna"  width="12.8" height="16" x="-6.4" y="-8.5" transform="matrix(1 0 0 -1 6.4057 7.4776)" overflow="visible"/>
</svg>
