<!-- Generator: Adobe Illustrator 19.1.0, SVG Export Plug-In  -->
<svg version="1.1"
	 xmlns="http://www.w3.org/2000/svg" xmlns:xlink="http://www.w3.org/1999/xlink" xmlns:a="http://ns.adobe.com/AdobeSVGViewerExtensions/3.0/"
	 x="0px" y="0px" width="24px" height="20px" viewBox="0 0 24 20" enable-background="new 0 0 24 20" xml:space="preserve">
<defs>
	<symbol  id="mail" viewBox="-12 -10 24 20">
		<path id="XMLID_1378_" d="M9.7,10H-9.7C-11,10-12,9-12,7.7V-7.7C-12-9-11-10-9.7-10H9.7C11-10,12-9,12-7.7V7.7
			C12,9,11,10,9.7,10z M7.6,7L0-0.7L-7.6,7H7.6z M-9-7V5.6l8.3-8.4C-0.5-3-0.3-3.1,0-3.1S0.5-3,0.7-2.8L9,5.6V-7H-9z"/>
	</symbol>
</defs>
<use xlink:href="#mail"  width="24" height="20" x="-12" y="-10" transform="matrix(1 0 0 -1 12 9.9998)" overflow="visible"/>
</svg>
