<!-- Generator: Adobe Illustrator 19.1.0, SVG Export Plug-In  -->
<svg version="1.1"
	 xmlns="http://www.w3.org/2000/svg" xmlns:xlink="http://www.w3.org/1999/xlink" xmlns:a="http://ns.adobe.com/AdobeSVGViewerExtensions/3.0/"
	 x="0px" y="0px" width="10.4px" height="16px" viewBox="0 0 10.4 16" enable-background="new 0 0 10.4 16" xml:space="preserve">
<defs>
	<symbol  id="telephone" viewBox="-5.2 -8 10.4 16">
		<g>
			<path d="M4.4-7.4C4-7.8,3.4-7.9,2.9-8C2.2-8,1.6-8,1-7.8c-0.8,0.3-1.5,1-2.1,1.6C-1.6-5.8-2-5.3-2.4-4.8
				c-1.2,1.6-2.3,4.2-2.6,6.1c-0.1,0.6-0.1,1.3-0.1,1.9c0,0.9,0,1.8,0.3,2.6c0.2,0.6,0.6,1.1,1.1,1.5C-3.4,7.6-2.9,8-2.3,8
				C-2,8-1.3,7.9-1,7.8c0.1,0,0.1-0.1,0.2-0.1C-0.6,7.5-0.6,7-0.6,6.8c0.1-0.6,0.2-1.3,0.3-1.9c0.1-0.3,0.2-0.7,0.1-1
				c-0.2-0.6-2.2-0.7-2.4-1.2c-0.1-0.2,0-0.7,0-0.9c0.3-2,1-3.6,2.2-5.2C-0.1-3.6,0.1-3.9,0.3-4c0.5-0.2,1.9,1.1,2.5,0.9
				c0.3-0.1,0.5-0.5,0.6-0.7c0.4-0.5,0.8-1,1.2-1.5c0.1-0.2,0.5-0.5,0.5-0.8c0-0.1,0-0.1,0-0.2C5-6.6,4.6-7.2,4.4-7.4z"/>
		</g>
	</symbol>
</defs>
<use xlink:href="#telephone"  width="10.4" height="16" x="-5.2" y="-8" transform="matrix(1 0 0 -1 5.1891 8)" overflow="visible"/>
</svg>
