<!-- Generator: Adobe Illustrator 19.1.0, SVG Export Plug-In  -->
<svg version="1.1"
	 xmlns="http://www.w3.org/2000/svg" xmlns:xlink="http://www.w3.org/1999/xlink" xmlns:a="http://ns.adobe.com/AdobeSVGViewerExtensions/3.0/"
	 x="0px" y="0px" width="11.7px" height="24px" viewBox="0 0 11.7 24" enable-background="new 0 0 11.7 24" xml:space="preserve">
<defs>
	<symbol  id="facebook" viewBox="-5.8 -12 11.7 24">
		<path id="facebook_10_" d="M-2.9-12v11.3h-3v4.1h3c0,0,0,1.7,0,3.5C-2.9,9.5-1.1,12,3,12c1.6,0,2.9-0.2,2.9-0.2
			L5.7,8.1c0,0-1.2,0-2.6,0c-1.5,0-1.7-0.7-1.7-1.8c0-0.9,0,1.9,0-3h4.4L5.6-0.7H1.4V-12H-2.9z"/>
	</symbol>
</defs>
<use xlink:href="#facebook"  width="11.7" height="24" x="-5.8" y="-12" transform="matrix(1 0 0 -1 5.8325 12)" overflow="visible"/>
</svg>
