<!-- Generator: Adobe Illustrator 19.1.0, SVG Export Plug-In  -->
<svg version="1.1"
	 xmlns="http://www.w3.org/2000/svg" xmlns:xlink="http://www.w3.org/1999/xlink" xmlns:a="http://ns.adobe.com/AdobeSVGViewerExtensions/3.0/"
	 x="0px" y="0px" width="24px" height="19.5px" viewBox="0 0 24 19.5" enable-background="new 0 0 24 19.5" xml:space="preserve">
<defs>
	<symbol  id="twitter" viewBox="-12 -9.8 24 19.5">
		<path id="XMLID_351_" d="M9.5,4.9c0-0.2,0-0.4,0-0.6c0-6.5-5-14-14-14c-2.8,0-5.4,0.8-7.5,2.2
			c0.4,0,0.8-0.1,1.2-0.1c2.3,0,4.4,0.8,6.1,2.1c-2.2,0-4,1.5-4.6,3.4C-9-2.1-8.7-2.2-8.4-2.2c0.4,0,0.9,0.1,1.3,0.2
			C-9.3-1.5-11,0.4-11,2.8c0,0,0,0,0,0.1c0.7-0.4,1.4-0.6,2.2-0.6C-10.1,3.2-11,4.7-11,6.4c0,0.9,0.2,1.7,0.7,2.5
			c2.4-3,6.1-4.9,10.1-5.1c-0.1,0.4-0.1,0.7-0.1,1.1c0,2.7,2.2,4.9,4.9,4.9c1.4,0,2.7-0.6,3.6-1.6c1.1,0.2,2.2,0.6,3.1,1.2
			C11,8.2,10.2,7.3,9.2,6.7c1,0.1,1.9,0.4,2.8,0.8C11.3,6.5,10.5,5.6,9.5,4.9z"/>
	</symbol>
</defs>
<use xlink:href="#twitter"  width="24" height="19.5" x="-12" y="-9.8" transform="matrix(1 0 0 -1 12 9.7519)" overflow="visible"/>
</svg>
