<!-- Generator: Adobe Illustrator 19.1.0, SVG Export Plug-In  -->
<svg version="1.1"
	 xmlns="http://www.w3.org/2000/svg" xmlns:xlink="http://www.w3.org/1999/xlink" xmlns:a="http://ns.adobe.com/AdobeSVGViewerExtensions/3.0/"
	 x="0px" y="0px" width="24px" height="18.4px" viewBox="0 0 24 18.4" enable-background="new 0 0 24 18.4" xml:space="preserve">
<defs>
	<symbol  id="googleplus" viewBox="-12 -9.2 24 18.4">
		<g>
			<g>
				<path d="M6.4,1h-8.6v-2.9h5.2C2.3-4.3,0-6.1-2.8-6.1c-3.4,0-6.1,2.7-6.1,6.1c0,3.4,2.7,6.1,6.1,6.1
					c1.7,0,3.3-0.7,4.4-1.8l2.1,2.3C2,8.2-0.3,9.2-2.8,9.2C-7.9,9.2-12,5.1-12,0s4.1-9.2,9.2-9.2c4.5,0,8.4,3.2,9.2,7.4L6.4,1L6.4,1
					L6.4,1z"/>
				<polygon points="12,1 10.2,1 10.2,2.8 8.7,2.8 8.7,1 7,1 7,-0.5 8.7,-0.5 8.7,-2.2 10.2,-2.2 10.2,-0.5 12,-0.5 
"/>
			</g>
		</g>
	</symbol>
</defs>
<use xlink:href="#googleplus"  width="24" height="18.4" x="-12" y="-9.2" transform="matrix(1 0 0 -1 12 9.2093)" overflow="visible"/>
</svg>
