<!-- Generator: Adobe Illustrator 19.1.0, SVG Export Plug-In  -->
<svg version="1.1"
	 xmlns="http://www.w3.org/2000/svg" xmlns:xlink="http://www.w3.org/1999/xlink" xmlns:a="http://ns.adobe.com/AdobeSVGViewerExtensions/3.0/"
	 x="0px" y="0px" width="11px" height="16px" viewBox="0 0 11 16" enable-background="new 0 0 11 16" xml:space="preserve">
<defs>
	<symbol  id="map" viewBox="-5.5 -8 11 16">
		<path d="M0,8c-3,0-5.7-2.6-5.5-5.9C-5.3-1.1-0.8-8,0-8C0.8-8,5.4-1.1,5.5,2.1C5.6,5.4,3,8,0,8z M0,0
			c-1.7,0-3,1.3-3,3s1.3,3,3,3s3-1.3,3-3S1.7,0,0,0z"/>
	</symbol>
</defs>
<use xlink:href="#map"  width="11" height="16" x="-5.5" y="-8" transform="matrix(1 0 0 -1 5.5144 8)" overflow="visible"/>
</svg>
