<svg style="display: none;"><defs> <symbol id="icon-arrow-back-left" viewBox="-8.7 -12 17.3 24"> <g> <polygon points="6.3,12 8.7,9 -2.5,0 8.7,-9 6.3,-12 -8.7,0 			"/> </g> </symbol>  <symbol id="icon-arrow-down-up_2" viewBox="-12 -8.7 24 17.3"> <g> <polygon fill="#00497b" points="-12,6.3 -9,8.7 0,-2.5 9,8.7 12,6.3 0,-8.7 			"/> </g> </symbol>  <symbol id="icon-arrow-next-right" viewBox="-8.7 -12 17.3 24"> <g> <polygon points="-6.3,-12 -8.7,-9 2.5,0 -8.7,9 -6.3,12 8.7,0 			"/> </g> </symbol>  <symbol id="icon-arrow-up-up" viewBox="-12 -8.7 24 17.3"> <g> <polygon points="12,-6.3 9,-8.7 0,2.5 -9,-8.7 -12,-6.3 0,8.7 			"/> </g> </symbol>  <symbol id="icon-close-icon_x5F_close" viewBox="-4.9 -4.9 9.9 9.9"> <polygon points="3.5,-4.9 -4.9,3.5 -3.5,4.9 4.9,-3.5 		"/> <polygon points="4.9,3.5 -3.5,-4.9 -4.9,-3.5 3.5,4.9 		"/> </symbol>  <symbol id="icon-columna-columna" viewBox="-6.4 -8.5 12.8 16"> <g> <g> <path d="M0-1c2.4,0,3.2,2.4,3.4,4.3C3.7,5.7,2.6,7.5,0,7.5c-2.6,0-3.7-1.8-3.4-4.2C-3.2,1.3-2.4-1,0-1z"/> <path d="M6.4-6.7c0,0.8-0.1,1.5-0.2,2.3C6-3.5,5.8-2.2,5-1.6C4.6-1.3,4-1.2,3.4-1C3.2-0.9,3-0.8,2.7-0.7
					C2-1.4,1.1-1.9,0-1.9c-1.1,0-2,0.4-2.7,1.2C-3-0.8-3.2-0.9-3.4-1C-4-1.2-4.6-1.3-5-1.6c-0.8-0.6-1-1.9-1.1-2.8
					c-0.1-0.7-0.2-1.5-0.2-2.3c0-0.6,0.3-0.7,0.8-0.8C-5-7.8-4.4-7.9-3.8-8.1C-2.5-8.3-1.3-8.5,0-8.5c1.3,0,2.5,0.2,3.8,0.5
					C4.4-7.9,5-7.8,5.6-7.5C6.1-7.4,6.4-7.3,6.4-6.7z"/> </g> </g> </symbol>  <symbol id="icon-facebook-facebook" viewBox="-5.8 -12 11.7 24"> <path id="icon-facebook-facebook_10_" d="M-2.9-12v11.3h-3v4.1h3c0,0,0,1.7,0,3.5C-2.9,9.5-1.1,12,3,12c1.6,0,2.9-0.2,2.9-0.2
			L5.7,8.1c0,0-1.2,0-2.6,0c-1.5,0-1.7-0.7-1.7-1.8c0-0.9,0,1.9,0-3h4.4L5.6-0.7H1.4V-12H-2.9z"/> </symbol>  <symbol id="icon-galeria-galeria" viewBox="-8 -8 16 16"> <g> <path d="M3,4V-7H-7V4H3 M4,5H-8V-8H4V5L4,5z M2,3h-8v-8h8V3z M5,4.4v-4l0.7,3.9L5,4.4z M-3.8,8l-0.4-2h1L-3,6.8
				L1.8,6H5V5.4l1.8-0.3L5-5.3v-1.4l0.7-0.1L8,5.9L-3.8,8z"/> </g> </symbol>  <symbol id="icon-gplus-googleplus" viewBox="-12 -9.2 24 18.4"> <g> <g> <path d="M6.4,1h-8.6v-2.9h5.2C2.3-4.3,0-6.1-2.8-6.1c-3.4,0-6.1,2.7-6.1,6.1c0,3.4,2.7,6.1,6.1,6.1
					c1.7,0,3.3-0.7,4.4-1.8l2.1,2.3C2,8.2-0.3,9.2-2.8,9.2C-7.9,9.2-12,5.1-12,0s4.1-9.2,9.2-9.2c4.5,0,8.4,3.2,9.2,7.4L6.4,1L6.4,1
					L6.4,1z"/> <polygon points="12,1 10.2,1 10.2,2.8 8.7,2.8 8.7,1 7,1 7,-0.5 8.7,-0.5 8.7,-2.2 10.2,-2.2 10.2,-0.5 12,-0.5 
"/> </g> </g> </symbol>  <symbol id="icon-letter-mail" viewBox="-12 -10 24 20"> <path id="icon-letter-XMLID_1378_" d="M9.7,10H-9.7C-11,10-12,9-12,7.7V-7.7C-12-9-11-10-9.7-10H9.7C11-10,12-9,12-7.7V7.7
			C12,9,11,10,9.7,10z M7.6,7L0-0.7L-7.6,7H7.6z M-9-7V5.6l8.3-8.4C-0.5-3-0.3-3.1,0-3.1S0.5-3,0.7-2.8L9,5.6V-7H-9z"/> </symbol>  <symbol id="icon-linkedin-linkedin" viewBox="-10.5 -10 21 20.1"> <path fill-rule="evenodd" clip-rule="evenodd" d="M-5.7-10V3.5h-4.5V-10H-5.7L-5.7-10z M-8,5.4
			c1.6,0,2.5,1,2.5,2.3C-5.5,9-6.4,10-8,10c-1.5,0-2.5-1-2.5-2.3C-10.5,6.4-9.5,5.4-8,5.4L-8,5.4L-8,5.4z M-3.2-10
			c0,0,0.1,12.3,0,13.5h4.5v-2h0c0.6,0.9,1.7,2.3,4.1,2.3c3,0,5.2-1.9,5.2-6.1V-10H6v7.2C6-1,5.3,0.3,3.7,0.3c-1.2,0-2-0.8-2.3-1.6
			C1.3-1.7,1.3-2.1,1.3-2.5V-10H-3.2L-3.2-10z"/> </symbol>  <symbol id="icon-magnifier-icon_x5F_search" viewBox="-9.8 -9.5 19.6 18.9"> <path d="M9.5-7.8L5.7-3.9c1,1.4,1.5,3.1,1.5,4.9c0,4.7-3.8,8.5-8.5,8.5S-9.8,5.7-9.8,1S-6-7.5-1.3-7.5
			c2.2,0,4.1,0.8,5.6,2.1l3.8-3.8c0.2-0.2,0.5-0.3,0.7-0.3s0.5,0.1,0.7,0.3C9.9-8.8,9.9-8.1,9.5-7.8z M-1.3-5.5
			c-3.6,0-6.5,2.9-6.5,6.5s2.9,6.5,6.5,6.5S5.2,4.5,5.2,1S2.3-5.5-1.3-5.5z"/> </symbol>  <symbol id="icon-menu-icon_x5F_menu" viewBox="-5 -5 10 10"> <polygon points="5,-5 -5,-5 -5,-3 5,-3 		"/> <polygon points="5,-1 -5,-1 -5,1 5,1 		"/> <polygon points="5,3 -5,3 -5,5 5,5 		"/> </symbol>  <symbol id="icon-phone-telephone" viewBox="-5.2 -8 10.4 16"> <g> <path d="M4.4-7.4C4-7.8,3.4-7.9,2.9-8C2.2-8,1.6-8,1-7.8c-0.8,0.3-1.5,1-2.1,1.6C-1.6-5.8-2-5.3-2.4-4.8
				c-1.2,1.6-2.3,4.2-2.6,6.1c-0.1,0.6-0.1,1.3-0.1,1.9c0,0.9,0,1.8,0.3,2.6c0.2,0.6,0.6,1.1,1.1,1.5C-3.4,7.6-2.9,8-2.3,8
				C-2,8-1.3,7.9-1,7.8c0.1,0,0.1-0.1,0.2-0.1C-0.6,7.5-0.6,7-0.6,6.8c0.1-0.6,0.2-1.3,0.3-1.9c0.1-0.3,0.2-0.7,0.1-1
				c-0.2-0.6-2.2-0.7-2.4-1.2c-0.1-0.2,0-0.7,0-0.9c0.3-2,1-3.6,2.2-5.2C-0.1-3.6,0.1-3.9,0.3-4c0.5-0.2,1.9,1.1,2.5,0.9
				c0.3-0.1,0.5-0.5,0.6-0.7c0.4-0.5,0.8-1,1.2-1.5c0.1-0.2,0.5-0.5,0.5-0.8c0-0.1,0-0.1,0-0.2C5-6.6,4.6-7.2,4.4-7.4z"/> </g> </symbol>  <symbol id="icon-place-map" viewBox="-5.5 -8 11 16"> <path d="M0,8c-3,0-5.7-2.6-5.5-5.9C-5.3-1.1-0.8-8,0-8C0.8-8,5.4-1.1,5.5,2.1C5.6,5.4,3,8,0,8z M0,0
			c-1.7,0-3,1.3-3,3s1.3,3,3,3s3-1.3,3-3S1.7,0,0,0z"/> </symbol>  <symbol id="icon-twitter-twitter" viewBox="-12 -9.8 24 19.5"> <path id="icon-twitter-XMLID_351_" d="M9.5,4.9c0-0.2,0-0.4,0-0.6c0-6.5-5-14-14-14c-2.8,0-5.4,0.8-7.5,2.2
			c0.4,0,0.8-0.1,1.2-0.1c2.3,0,4.4,0.8,6.1,2.1c-2.2,0-4,1.5-4.6,3.4C-9-2.1-8.7-2.2-8.4-2.2c0.4,0,0.9,0.1,1.3,0.2
			C-9.3-1.5-11,0.4-11,2.8c0,0,0,0,0,0.1c0.7-0.4,1.4-0.6,2.2-0.6C-10.1,3.2-11,4.7-11,6.4c0,0.9,0.2,1.7,0.7,2.5
			c2.4-3,6.1-4.9,10.1-5.1c-0.1,0.4-0.1,0.7-0.1,1.1c0,2.7,2.2,4.9,4.9,4.9c1.4,0,2.7-0.6,3.6-1.6c1.1,0.2,2.2,0.6,3.1,1.2
			C11,8.2,10.2,7.3,9.2,6.7c1,0.1,1.9,0.4,2.8,0.8C11.3,6.5,10.5,5.6,9.5,4.9z"/> </symbol>  <symbol id="icon-video-video" viewBox="-8 -6 16 12"> <path d="M-2.5-2.5v4.9c0,0.2,0.2,0.3,0.4,0.2l4.9-2.5C3,0.1,3-0.1,2.8-0.2l-4.9-2.5C-2.3-2.8-2.5-2.6-2.5-2.5z
			 M6.7,4.7H-6.7v-9.3H6.7V4.7 M8,6V-6H-8V6H8L8,6z"/> </symbol> </defs><symbol viewBox="0 0 17.5 24.2" id="shape-icon-arrow-back"><title>icon-arrow-back</title>  <use xlink:href="#icon-arrow-back-left" width="17.3" height="24" x="-8.7" y="-12" transform="matrix(1.0102 0 0 -1.0102 8.753 12.1218)" overflow="visible"/> </symbol><symbol viewBox="0 0 16 11.6" id="shape-icon-arrow-down"><title>icon-arrow-down</title>  <use xlink:href="#icon-arrow-down-up_2" width="24" height="17.3" x="-12" y="-8.7" transform="matrix(0.6667 0 0 -0.6667 8 5.7767)" overflow="visible"/> </symbol><symbol viewBox="0 0 17.5 24.2" id="shape-icon-arrow-next"><title>icon-arrow-next</title>  <use xlink:href="#icon-arrow-next-right" width="17.3" height="24" id="icon-arrow-next-XMLID_1_" x="-8.7" y="-12" transform="matrix(1.0102 0 0 -1.0102 8.753 12.1218)" overflow="visible"/> </symbol><symbol viewBox="0 0 24 17.3" id="shape-icon-arrow-up"><title>icon-arrow-up</title>  <use xlink:href="#icon-arrow-up-up" width="24" height="17.3" x="-12" y="-8.7" transform="matrix(1 0 0 -1 12 8.665)" overflow="visible"/> </symbol><symbol viewBox="0 0 10 10" id="shape-icon-close"><title>icon-close</title>  <use xlink:href="#icon-close-icon_x5F_close" width="9.9" height="9.9" x="-4.9" y="-4.9" transform="matrix(1.0102 0 0 -1.0102 5 5)" overflow="visible"/> </symbol><symbol viewBox="0 0 12.8 16" id="shape-icon-columna"><title>icon-columna</title>  <use xlink:href="#icon-columna-columna" width="12.8" height="16" x="-6.4" y="-8.5" transform="matrix(1 0 0 -1 6.4057 7.4776)" overflow="visible"/> </symbol><symbol viewBox="0 0 11.7 24" id="shape-icon-facebook"><title>icon-facebook</title>  <use xlink:href="#icon-facebook-facebook" width="11.7" height="24" x="-5.8" y="-12" transform="matrix(1 0 0 -1 5.8325 12)" overflow="visible"/> </symbol><symbol viewBox="0 0 16 16" id="shape-icon-galeria"><title>icon-galeria</title>  <use xlink:href="#icon-galeria-galeria" width="16" height="16" x="-8" y="-8" transform="matrix(1 0 0 -1 8 8)" overflow="visible"/> </symbol><symbol viewBox="0 0 24 18.4" id="shape-icon-gplus"><title>icon-gplus</title>  <use xlink:href="#icon-gplus-googleplus" width="24" height="18.4" x="-12" y="-9.2" transform="matrix(1 0 0 -1 12 9.2093)" overflow="visible"/> </symbol><symbol viewBox="0 0 24 20" id="shape-icon-letter"><title>icon-letter</title>  <use xlink:href="#icon-letter-mail" width="24" height="20" x="-12" y="-10" transform="matrix(1 0 0 -1 12 9.9998)" overflow="visible"/> </symbol><symbol viewBox="0 0 21 20.1" id="shape-icon-linkedin"><title>icon-linkedin</title>  <use xlink:href="#icon-linkedin-linkedin" width="21" height="20.1" x="-10.5" y="-10" transform="matrix(1 0 0 -1 10.5 10.0364)" overflow="visible"/> </symbol><symbol viewBox="0 0 19 18.4" id="shape-icon-magnifier"><title>icon-magnifier</title>  <use xlink:href="#icon-magnifier-icon_x5F_search" width="19.6" height="18.9" x="-9.8" y="-9.5" transform="matrix(0.9698 0 0 -0.9698 9.5 9.1789)" overflow="visible"/> </symbol><symbol viewBox="0 0 10 10" id="shape-icon-menu"><title>icon-menu</title>  <use xlink:href="#icon-menu-icon_x5F_menu" width="10" height="10" x="-5" y="-5" transform="matrix(1 0 0 -1 5 5)" overflow="visible"/> </symbol><symbol viewBox="0 0 10.4 16" id="shape-icon-phone"><title>icon-phone</title>  <use xlink:href="#icon-phone-telephone" width="10.4" height="16" x="-5.2" y="-8" transform="matrix(1 0 0 -1 5.1891 8)" overflow="visible"/> </symbol><symbol viewBox="0 0 11 16" id="shape-icon-place"><title>icon-place</title>  <use xlink:href="#icon-place-map" width="11" height="16" x="-5.5" y="-8" transform="matrix(1 0 0 -1 5.5144 8)" overflow="visible"/> </symbol><symbol viewBox="0 0 24 19.5" id="shape-icon-twitter"><title>icon-twitter</title>  <use xlink:href="#icon-twitter-twitter" width="24" height="19.5" x="-12" y="-9.8" transform="matrix(1 0 0 -1 12 9.7519)" overflow="visible"/> </symbol><symbol viewBox="0 0 16 12" id="shape-icon-video"><title>icon-video</title>  <use xlink:href="#icon-video-video" width="16" height="12" x="-8" y="-6" transform="matrix(1 0 0 -1 8 6)" overflow="visible"/> </symbol></svg>